<svg xmlns="http://www.w3.org/2000/svg" xmlns:xlink="http://www.w3.org/1999/xlink" width="500" zoomAndPan="magnify" viewBox="0 0 375 374.999991" height="500" preserveAspectRatio="xMidYMid meet" version="1.0"><defs><g/><clipPath id="eba59e88d8"><path d="M 0.699219 48.242188 L 374.199219 48.242188 L 374.199219 312.738281 L 0.699219 312.738281 Z M 0.699219 48.242188 " clip-rule="nonzero"/></clipPath></defs><g clip-path="url(#eba59e88d8)"><path fill="#c8b8db" d="M 35.507812 73.871094 C 19.683594 83.9375 10.878906 97.878906 6.304688 116.164062 C 3.230469 128.453125 2.074219 141.082031 1.347656 153.695312 C 0.0664062 176.015625 2.105469 198.21875 4.667969 220.363281 C 8.121094 250.246094 11.585938 280.707031 40.691406 296.953125 C 69.855469 313.234375 108.652344 313.660156 141.152344 312.78125 C 178.957031 311.761719 215.710938 307.769531 253.167969 303.035156 C 282.730469 299.296875 312.464844 294.320312 341.171875 285.535156 C 385.078125 272.101562 383.128906 108.976562 350.109375 72.769531 C 330.554688 51.328125 296.148438 51.347656 267.925781 49.300781 C 235.542969 46.957031 203.226562 50.566406 171 53.527344 C 139.453125 56.425781 66.375 66.085938 35.507812 73.871094 Z M 35.507812 73.871094 " fill-opacity="1" fill-rule="evenodd"/></g><g fill="#1c2541" fill-opacity="1"><g transform="translate(19.687042, 236.346524)"><g/></g></g><g fill="#1c2541" fill-opacity="1"><g transform="translate(117.054086, 236.346524)"><g><path d="M 34.984375 -37.109375 C 35.609375 -32.203125 36.890625 -28.238281 38.828125 -25.21875 C 40.773438 -22.207031 43.269531 -20.007812 46.3125 -18.625 C 49.351562 -17.25 52.765625 -16.5625 56.546875 -16.5625 C 60.648438 -16.5625 64.617188 -17.238281 68.453125 -18.59375 C 72.285156 -19.945312 75.976562 -21.75 79.53125 -24 L 90.265625 -9.46875 C 86.035156 -5.863281 80.921875 -2.90625 74.921875 -0.59375 C 68.921875 1.71875 62.085938 2.875 54.421875 2.875 C 44.171875 2.875 35.578125 0.832031 28.640625 -3.25 C 21.710938 -7.332031 16.503906 -12.953125 13.015625 -20.109375 C 9.523438 -27.265625 7.78125 -35.492188 7.78125 -44.796875 C 7.78125 -53.640625 9.46875 -61.679688 12.84375 -68.921875 C 16.226562 -76.160156 21.171875 -81.9375 27.671875 -86.25 C 34.179688 -90.5625 42.140625 -92.71875 51.546875 -92.71875 C 60.117188 -92.71875 67.546875 -90.882812 73.828125 -87.21875 C 80.109375 -83.550781 84.976562 -78.28125 88.4375 -71.40625 C 91.90625 -64.539062 93.640625 -56.289062 93.640625 -46.65625 C 93.640625 -45.132812 93.597656 -43.5 93.515625 -41.75 C 93.429688 -40 93.304688 -38.453125 93.140625 -37.109375 Z M 51.546875 -74.796875 C 46.765625 -74.796875 42.90625 -73.078125 39.96875 -69.640625 C 37.039062 -66.203125 35.269531 -60.707031 34.65625 -53.15625 L 67.609375 -53.15625 C 67.554688 -59.695312 66.289062 -64.9375 63.8125 -68.875 C 61.332031 -72.820312 57.242188 -74.796875 51.546875 -74.796875 Z M 51.546875 -74.796875 "/></g></g></g><g fill="#1c2541" fill-opacity="1"><g transform="translate(214.416091, 236.346524)"><g><path d="M 97.03125 -89.75 L 67.53125 -50.03125 L 99.46875 0 L 69.046875 0 L 39.546875 -49.1875 L 69.046875 -89.75 Z M 38.546875 -128.203125 L 38.546875 0 L 11.828125 0 L 11.828125 -125.421875 Z M 38.546875 -128.203125 "/></g></g></g><g fill="#1c2541" fill-opacity="1"><g transform="translate(41.842507, 259.873924)"><g><path d="M 76.71875 20.9375 L 60.984375 20.9375 L 6.40625 -154.828125 L 22.03125 -154.828125 Z M 76.71875 20.9375 "/></g></g></g></svg>